<?xml version="1.0" encoding="UTF-8"?>
<svg xmlns="http://www.w3.org/2000/svg" version="1.1" viewBox="0 0 1141.81 576.47">
  <defs>
    <style>
      .cls-1, .cls-2, .cls-3 {
        opacity: .8;
      }

      .cls-1, .cls-4 {
        fill: #b8860b;
      }

      .cls-2 {
        fill: #8b4513;
      }

      .cls-5, .cls-3 {
        fill: gold;
      }
    </style>
  </defs>
  <!-- Generator: Adobe Illustrator 28.6.0, SVG Export Plug-In . SVG Version: 1.2.0 Build 709)  -->
  <g>
    <g id="Layer_1">
      <g>
        <path class="cls-2" d="M272.44,39.54c5.48-1.49,10.89-3.13,16.32-4.48,5.43-1.4,10.83-2.79,16.19-4.17,10.78-2.54,21.44-5.17,32.1-7.36,10.63-2.39,21.26-4.31,31.84-6.39,10.62-1.81,21.19-3.77,31.82-5.29,5.31-.77,10.62-1.68,15.96-2.33,5.34-.69,10.68-1.39,16.03-2.08,5.35-.7,10.74-1.2,16.13-1.81,5.39-.59,10.8-1.18,16.25-1.61,5.44-.46,10.91-.93,16.4-1.4,5.5-.35,11.02-.71,16.58-1.06,2.78-.16,5.57-.37,8.36-.5,2.8-.12,5.6-.23,8.42-.35,5.63-.21,11.3-.5,17.01-.62,6.53-.12,13.26-.12,20.06-.05,6.8.15,13.69.36,20.57.69,21.12,1.22,33.41,3.44,50.7,5.03,37.58,3.1,75.39,7.8,113.17,14.38,37.77,6.59,75.53,15.02,112.83,25.85,37.3,10.8,74.18,23.95,109.85,40.32,17.81,8.21,35.33,17.21,52.28,27.29,8.47,5.04,16.84,10.29,24.98,15.92,8.15,5.61,16.16,11.44,23.87,17.71,12.13,9.73,23.47,20.45,33.92,31.99,10.33,11.64,19.72,24.2,27.34,37.88,7.67,13.63,13.54,28.37,16.98,43.72,1.67,7.68,2.79,15.49,3.24,23.34.38,7.85.14,15.72-.69,23.51-.88,7.79-2.47,15.48-4.53,22.99-2.04,7.53-4.86,14.8-7.97,21.89-6.32,14.15-14.59,27.23-23.93,39.31-18.86,24.08-41.96,44.03-66.61,61.16-24.74,17.09-51.15,31.46-78.42,43.89-27.29,12.42-55.47,22.91-84.23,31.93-28.76,9.03-58.12,16.55-87.96,22.81-29.83,6.3-60.15,11.27-90.9,15.16-34.87,4.4-69.5,7.16-103.94,8.59-17.22.67-34.4,1.19-51.55,1.03-17.15.13-34.26-.35-51.36-.92-34.2-1.25-68.31-4.14-102.4-8.46-34.09-4.36-68.18-10.3-102.22-18.23-10.66-2.41-20.97-5.32-31.2-8.08-5.13-1.32-10.15-2.97-15.18-4.48-5.02-1.57-10.06-3.04-15.05-4.7-4.97-1.72-9.94-3.44-14.94-5.17-2.49-.88-5-1.71-7.48-2.66-2.48-.96-4.96-1.93-7.45-2.89-4.97-1.96-10-3.86-15.01-5.96-4.98-2.18-10-4.38-15.09-6.61-4.21-1.86-8.82-4.34-13.15-6.7-4.33-2.36-8.34-4.66-11.25-6.48-5.67-3.72-7.06-5.48,2.23-1.99,18.7,7.06,43.48,15.71,67.51,23.1,27.31,8.53,54.03,14.87,80.35,20.14,13.13,2.77,26.27,4.81,39.29,7.04,13.1,1.83,26.08,3.87,39.18,5.24,13.05,1.66,26.2,2.71,39.4,3.94,6.61.54,13.26.91,19.92,1.38,3.33.23,6.67.45,10.02.68,3.36.15,6.72.29,10.1.44,26.98,1.44,54.68,1.63,83.6,1.28,7.46-.14,14.88-.28,22.25-.42,7.37-.24,14.69-.39,21.96-.69,14.55-.49,28.94-1.17,43.2-1.98,14.26-.78,28.4-1.78,42.45-2.94,14.06-1.13,28.02-2.51,41.95-4.07,13.92-1.54,27.79-3.35,41.64-5.42,13.85-2.06,27.69-4.37,41.51-7.05,13.83-2.67,27.66-5.64,41.5-9.01,13.83-3.4,27.67-7.18,41.51-11.44,27.03-8.38,52.52-17.99,76.64-28.95,24.11-10.96,46.91-23.22,68.22-37.25,21.28-14.03,41.13-29.85,58.43-48.14,8.66-9.12,16.59-18.92,23.5-29.4,6.98-10.44,12.72-21.67,17.11-33.45,2.32-6.24,4.29-12.61,5.86-18.91,1.49-6.31,2.5-12.54,3.19-18.47,1.21-11.86.8-22.42.29-29.84-.08-.96-.15-1.88-.22-2.77-.09-.88-.21-1.72-.31-2.53-.19-1.63-.36-3.12-.52-4.5-.41-2.77-.76-5.08-1.07-7.14-.37-2.07-.69-3.88-1-5.63-.33-1.76-.78-3.42-1.24-5.24-.44-1.83-1.09-3.74-1.91-5.96-.42-1.11-.83-2.32-1.38-3.59-.57-1.27-1.19-2.63-1.87-4.13-2.85-5.91-7.06-13.72-14.63-24.02-2.44-3.36-5.09-6.53-7.67-9.7-2.7-3.08-5.34-6.17-8.16-9.08-2.73-2.98-5.65-5.76-8.48-8.59-2.95-2.71-5.81-5.49-8.84-8.06-5.93-5.29-12.17-10.16-18.43-14.94-3.2-2.31-6.33-4.7-9.6-6.91l-4.87-3.37-4.95-3.26c-13.23-8.67-27.08-16.6-41.65-24.15-14.58-7.53-29.85-14.75-46.14-21.65-27.49-11.82-54.96-21.56-82.44-29.78-27.48-8.24-54.97-15.02-82.72-20.55-55.5-11.03-112.01-17.4-172.11-18.74-23.65-.51-47.3-.15-70.82.62-23.52.91-46.9,2.32-70.04,4.23-23.13,2.03-46,4.51-68.54,7.38-22.53,2.94-44.69,6.36-66.43,10.02-35.04,6.11-63.75,11.92-90.94,18.42-27.17,6.55-52.87,13.74-81.16,24.61-19.82,7.68-41.37,17.95-62.71,30.66-2.66,1.61-5.38,3.14-8.01,4.84-2.63,1.71-5.27,3.42-7.92,5.14l-3.98,2.59-3.89,2.75c-2.6,1.83-5.2,3.67-7.8,5.51-10.18,7.68-20.31,15.6-29.57,24.36-1.86,1.75-3.75,3.27-5.46,4.92-1.73,1.62-3.44,3.19-5.19,4.76-3.56,3.07-6.94,6.48-10.81,10.47,16.9-23.73,43.86-48.24,75.47-68.97,3.99-2.53,7.96-5.17,12.05-7.64,4.12-2.42,8.26-4.85,12.42-7.29,4.21-2.33,8.47-4.59,12.73-6.89,2.12-1.17,4.28-2.25,6.44-3.31l6.49-3.21c2.17-1.06,4.32-2.16,6.51-3.17,2.19-1,4.38-1.99,6.57-2.99,4.39-1.97,8.73-4.01,13.15-5.79,4.41-1.82,8.8-3.62,13.16-5.42,4.41-1.67,8.78-3.32,13.13-4.96,4.78-1.82,8.32-2.75,11.48-3.63,3.17-.86,6.01-1.56,9.52-2.58,22.79-7.29,43.29-14.36,64.91-20.51Z"/>
        <path class="cls-1" d="M256.51,45.86c21.72-6.55,43.03-12.32,64.23-17.16,21.19-4.85,42.2-9.21,63.38-12.67,21.16-3.53,42.44-6.54,64.15-8.75,10.84-1.25,21.81-2.03,32.89-2.97,5.55-.34,11.13-.69,16.75-1.04,2.81-.16,5.63-.35,8.46-.48,2.83-.11,5.67-.22,8.52-.33,13.04-.59,26.8-.28,40.57.05,21.03.92,33.4,3.01,50.68,4.34,75.06,5.17,151.3,16.51,226.18,36.58,37.39,10.13,74.46,22.39,110.4,37.79,35.89,15.41,70.84,33.78,102.72,57.01,12.45,9.13,24.28,19.05,35.29,29.77,5.43,5.44,10.78,10.95,15.7,16.84,1.26,1.44,2.5,2.91,3.68,4.42l3.59,4.5c2.27,3.1,4.63,6.12,6.74,9.33,4.39,6.29,8.32,12.9,11.88,19.71,3.6,6.78,6.63,13.87,9.2,21.1,2.61,7.22,4.59,14.68,5.99,22.23.78,3.76,1.2,7.59,1.69,11.39.31,3.83.66,7.65.67,11.48.14,7.66-.25,15.34-1.41,22.89-1.15,7.55-2.72,15.04-5.05,22.27-4.52,14.52-11.18,28.24-19.28,40.88-.98,1.61-2.02,3.16-3.1,4.7-1.07,1.54-2.1,3.11-3.2,4.62-2.25,2.99-4.42,6.04-6.81,8.92-4.62,5.87-9.64,11.39-14.76,16.8-10.35,10.69-21.48,20.54-33.16,29.63-23.43,18.11-48.85,33.36-75.28,46.61-26.45,13.23-53.94,24.45-82.12,34.17-56.4,19.39-115.49,32.89-176.7,41.9-34.75,5.07-69.29,8.58-103.67,10.63-17.19,1.02-34.35,1.7-51.47,2.05-4.28.06-8.56.19-12.84.18h-12.83s-12.82,0-12.82,0c-4.27,0-8.54-.18-12.82-.25-68.33-1.32-136.52-8.21-204.85-22.35-42.67-9.11-81.18-20.35-122.2-37.08-4.25-1.7-10.26-4.5-16.66-7.39-3.2-1.46-6.5-2.93-9.68-4.43-3.14-1.59-6.2-3.13-8.99-4.54-11.17-5.67-17.69-9.58-8.4-6.1,18.69,7.07,43.5,15.69,67.51,23.06,27.31,8.51,54.03,14.86,80.34,20.1,13.13,2.77,26.27,4.8,39.29,7.01,13.1,1.84,26.08,3.85,39.18,5.23,13.05,1.67,26.2,2.69,39.4,3.93,6.61.52,13.26.91,19.92,1.38,3.33.22,6.67.45,10.03.67,3.36.15,6.72.29,10.1.44,26.98,1.42,54.69,1.63,83.62,1.25,7.46-.14,14.87-.28,22.24-.42,7.36-.25,14.68-.4,21.95-.7,14.55-.5,28.93-1.17,43.18-2,14.26-.79,28.39-1.79,42.44-2.95,14.05-1.14,28.02-2.51,41.93-4.08,13.92-1.55,27.79-3.36,41.63-5.44,13.85-2.07,27.68-4.38,41.5-7.07,13.82-2.67,27.65-5.66,41.49-9.03,13.83-3.41,27.67-7.2,41.51-11.46,27.02-8.39,52.49-18,76.59-28.98,24.09-10.97,46.87-23.25,68.15-37.28,21.25-14.04,41.06-29.87,58.33-48.16,8.64-9.12,16.52-18.94,23.42-29.4,6.95-10.44,12.66-21.66,17-33.43,2.34-6.23,4.25-12.6,5.8-18.89,1.51-6.3,2.45-12.54,3.14-18.45,1.16-11.85.75-22.4.2-29.82-.08-.96-.15-1.88-.23-2.76-.11-.88-.22-1.72-.32-2.52-.21-1.61-.34-3.11-.53-4.47-.41-2.75-.75-5.03-1.05-7.05-.36-2.04-.67-3.81-.96-5.52-.33-1.71-.75-3.34-1.2-5.12-.42-1.79-1.05-3.66-1.86-5.84-.41-1.09-.82-2.28-1.35-3.54-.57-1.25-1.18-2.6-1.85-4.08-2.81-5.86-6.98-13.63-14.53-23.93-2.43-3.36-5.08-6.53-7.66-9.71-2.71-3.08-5.33-6.18-8.15-9.08-2.73-2.98-5.64-5.77-8.47-8.59-1.47-1.36-2.93-2.73-4.39-4.08-1.45-1.37-2.93-2.69-4.44-3.99-5.92-5.29-12.16-10.16-18.41-14.94-6.35-4.67-12.75-9.26-19.4-13.53-13.21-8.67-27.05-16.62-41.61-24.16-14.56-7.54-29.82-14.75-46.11-21.67-27.48-11.83-54.95-21.57-82.42-29.81-13.74-4.12-27.48-7.87-41.25-11.31-13.77-3.41-27.58-6.47-41.45-9.26-55.48-11.04-111.97-17.42-172.06-18.77-23.65-.51-47.31-.17-70.82.6-23.51.9-46.89,2.3-70.02,4.21-23.12,2.02-45.99,4.49-68.52,7.35-22.52,2.94-44.69,6.34-66.44,10.01-35.05,6.11-63.75,11.91-90.94,18.39-27.16,6.55-52.86,13.71-81.14,24.57-19.83,7.67-41.38,17.93-62.71,30.63-2.66,1.6-5.37,3.15-8.01,4.83-2.63,1.71-5.27,3.42-7.92,5.13l-3.98,2.58-3.89,2.74c-2.59,1.83-5.19,3.67-7.8,5.51-10.19,7.66-20.31,15.58-29.58,24.33-1.85,1.73-3.72,3.26-5.45,4.88-1.72,1.62-3.43,3.18-5.18,4.75-.87.78-1.75,1.57-2.64,2.37-.9.79-1.8,1.61-2.66,2.5-1.75,1.76-3.56,3.6-5.5,5.56,2.19-2.88,4.32-5.88,6.69-8.73,2.41-2.81,4.85-5.64,7.31-8.51,5.16-5.49,10.47-11.1,16.31-16.3,11.54-10.58,24.33-20.64,38.26-29.83,3.42-2.4,7.01-4.59,10.6-6.83,3.6-2.23,7.2-4.53,10.96-6.61,3.73-2.12,7.48-4.29,11.29-6.39,3.86-2.02,7.74-4.04,11.65-6.09,15.76-7.92,32.27-15.41,49.52-22.19,9.48-3.65,13.86-4.48,20.8-6.68,22.58-7.82,42.9-15.26,64.34-21.78Z"/>
        <path class="cls-3" d="M230.72,57.37c21.4-7.31,42.51-13.46,63.46-19,5.25-1.33,10.46-2.8,15.7-4.01,5.24-1.25,10.47-2.49,15.68-3.73,5.23-1.19,10.47-2.27,15.7-3.41,2.62-.55,5.23-1.15,7.85-1.66l7.87-1.52c20.99-4.17,42.15-7.51,63.72-10.32,21.57-2.9,43.59-4.86,66.3-6.37,6.5-.36,13.17-.65,19.94-.78,6.77-.02,13.63-.04,20.49-.05,10.51.26,18.85.86,26.72,1.41,7.87.66,15.27,1.27,23.91,1.78,37.49,1.72,74.18,5.05,110.38,9.97,36.19,4.93,71.89,11.43,107.33,19.77,35.43,8.36,70.62,18.53,105.58,31.19,34.9,12.76,69.67,27.92,103.34,47.37,13.16,7.66,25.83,15.87,37.88,24.71,12.03,8.87,23.41,18.42,33.96,28.67,5.22,5.18,10.32,10.45,15.05,16.02,4.81,5.5,9.24,11.28,13.43,17.21,4.2,5.92,7.94,12.13,11.44,18.43,3.38,6.38,6.42,12.91,8.99,19.61,2.48,6.73,4.59,13.59,6.12,20.57,1.46,6.99,2.48,14.06,2.9,21.17.34,7.11.24,14.22-.47,21.28-.79,7.05-1.99,14.04-3.78,20.88-3.61,13.68-9.17,26.77-16.25,38.95l-1.31,2.3-1.4,2.24-2.8,4.47c-2.02,2.88-3.89,5.87-6.04,8.66l-3.15,4.24-3.3,4.12-1.65,2.06-1.72,2-3.44,4c-18.77,21.01-40.82,38.92-64.48,54.47-23.68,15.57-48.99,28.93-75.34,40.66-52.77,23.43-109.64,40.53-169.99,53.12-34.25,7.08-68.42,12.38-102.52,16.23-34.1,3.84-68.15,6.25-102.19,7.23-4.26.15-8.51.25-12.77.31-4.26.07-8.51.19-12.77.16l-25.55.02c-8.52-.2-17.04-.39-25.57-.59-4.27-.05-8.53-.31-12.79-.5l-12.8-.61c-34.14-1.84-68.38-5.11-102.74-10.12-5.36-.82-11.02-1.69-16.89-2.59-5.85-1.04-11.92-2.11-18.14-3.21-3.11-.56-6.26-1.08-9.43-1.69-3.16-.64-6.34-1.29-9.55-1.95-3.21-.66-6.43-1.32-9.66-1.98-3.24-.66-6.48-1.31-9.7-2.11-25.89-5.72-51.47-13.14-72.29-20.37-4.27-1.65-11.81-4.33-20.39-7.39-4.25-1.65-8.76-3.4-13.26-5.15-4.5-1.75-9-3.45-13.13-5.3-4.15-1.8-8.02-3.48-11.35-4.92-1.66-.74-3.19-1.42-4.54-2.02-1.35-.63-2.51-1.24-3.48-1.73-3.87-2-4.51-2.61.17-.93,18.84,6.45,43.76,14.69,67.87,21.38,27.49,7.76,54.23,13.68,80.59,18.52,6.6,1.13,13.17,2.25,19.72,3.36,6.56,1.04,13.12,1.9,19.65,2.86,3.27.45,6.52.96,9.79,1.37l9.81,1.14,9.79,1.14c3.26.37,6.52.79,9.8,1.05,6.54.59,13.09,1.19,19.65,1.79l4.92.44,4.94.33c3.29.22,6.59.44,9.9.66,13.2,1.03,26.54,1.39,40.01,2.03,6.74.15,13.53.29,20.37.44,3.42.07,6.85.14,10.29.2,3.45,0,6.91-.02,10.38-.02,6.95-.04,13.95.05,21.03-.09,7.07-.17,14.22-.33,21.45-.5,14.9-.41,29.6-.99,44.11-1.74,14.52-.73,28.87-1.55,43.09-2.6,14.22-1.02,28.32-2.16,42.32-3.56,14.01-1.37,27.93-2.89,41.79-4.7,55.41-7.16,110.23-17.73,165.15-35.83,26.75-8.97,51.91-19.16,75.62-30.72,23.7-11.56,45.94-24.57,66.49-39.35,20.53-14.78,39.34-31.49,55.1-50.63,7.91-9.54,14.81-19.81,20.66-30.62,2.83-5.44,5.52-10.98,7.66-16.72,1.19-2.83,2.04-5.77,3.06-8.67.8-2.95,1.77-5.88,2.38-8.88.85-3.16,1.43-6.37,2.09-9.55.47-3.2,1.07-6.38,1.34-9.56.43-3.16.51-6.3.75-9.38,0-3.08.2-6.1.04-9.03-.04-5.88-.7-11.37-1.24-16.34-.37-2.48-.73-4.81-1.05-6.98-.42-2.16-.78-4.17-1.08-6-.89-3.7-1.48-6.75-2.17-9.24-.63-2.5-1.07-4.54-1.56-6.23-.43-1.73-.78-3.15-1.11-4.49-.36-1.34-.75-2.58-1.2-3.95-.88-2.75-2.25-5.94-5.07-11.1-.74-1.27-1.56-2.68-2.46-4.24-.92-1.55-2.06-3.19-3.25-5.03-1.18-1.86-2.63-3.79-4.19-5.94-1.53-2.17-3.37-4.41-5.33-6.89-10.49-12.71-22.1-23.84-34.33-33.83-12.2-10.05-25.09-18.94-38.47-27.23-13.38-8.3-27.35-15.9-42.01-23.14-14.67-7.23-30.02-14.13-46.36-20.78-27.59-11.37-55.13-20.68-82.64-28.58-27.51-7.92-55.03-14.33-82.76-19.61-55.5-10.44-111.95-16.29-171.97-17.11l-8.85-.08-8.85.02c-5.9-.02-11.8.11-17.69.18-5.89.09-11.78.32-17.66.47l-8.82.25-8.8.41c-23.47.96-46.79,2.67-69.85,4.83-11.54,1-22.99,2.35-34.4,3.57-11.37,1.45-22.71,2.75-33.92,4.4-22.44,3.14-44.55,6.62-66.18,10.62-34.96,6.35-63.51,12.61-90.53,19.42-26.99,6.91-52.49,14.47-80.53,25.63-19.59,8.04-40.93,18.57-61.84,31.79-5.17,3.39-10.51,6.64-15.59,10.36-2.57,1.81-5.15,3.63-7.73,5.46-2.51,1.93-5.02,3.86-7.53,5.8l-3.77,2.91c-1.24,1-2.44,2.04-3.66,3.06l-7.3,6.14c-2.34,2.15-4.69,4.3-7.03,6.44l-3.5,3.22-3.34,3.38c-1.78,1.8-3.5,3.47-5.21,5.08-.87.79-1.69,1.61-2.49,2.45l-2.45,2.47c-1.65,1.65-3.32,3.31-5.07,5.05-1.71,1.77-3.36,3.74-5.19,5.8,3.85-6.12,8.29-11.64,12.68-17.15,2.33-2.64,4.64-5.26,6.95-7.88,1.14-1.33,2.36-2.57,3.6-3.8l3.7-3.7,3.72-3.68c1.25-1.21,2.58-2.34,3.88-3.51,2.61-2.31,5.22-4.65,7.9-6.94,5.51-4.36,10.98-8.91,16.92-13,1.47-1.05,2.94-2.1,4.43-3.16,1.48-1.07,2.98-2.12,4.53-3.1,3.08-2.01,6.2-4.03,9.35-6.09,3.15-2.06,6.48-3.92,9.79-5.93,1.66-.99,3.33-1.98,5.02-2.99,1.69-1,3.44-1.91,5.18-2.88,3.49-1.91,7.04-3.85,10.66-5.82,3.67-1.86,7.4-3.76,11.21-5.69,3.78-1.99,7.75-3.75,11.74-5.66,4-1.9,8.08-3.85,12.32-5.66,4.65-2.02,8.04-3.31,11.12-4.41,3.1-1.04,5.89-1.87,9.31-3.07,22.17-8.67,42.12-16.86,63.22-24.09Z"/>
        <path class="cls-3" d="M231.16,64.08c16.66-5.57,30.52-10.15,43.69-14.16,6.58-2,12.94-4.05,19.42-5.84,6.47-1.84,12.97-3.81,19.86-5.54,6.88-1.79,14.06-3.73,21.89-5.47,3.91-.89,7.97-1.82,12.2-2.79,4.25-.86,8.68-1.76,13.32-2.7,9.27-1.94,19.47-3.56,30.77-5.46,5.67-.81,11.62-1.67,17.87-2.56,6.26-.91,12.86-1.58,19.8-2.42,6.42-.8,13.06-1.24,19.79-1.7,3.37-.21,6.76-.42,10.16-.63,3.41-.13,6.83-.27,10.25-.4,5.22-.12,9.91-.22,14.28-.15,4.37.11,8.41.22,12.35.32,7.86.18,15.26.59,23.87.66,37.35-.03,73.97,1.58,110.19,4.71,36.22,3.13,72.03,7.77,107.69,14.09,35.67,6.32,71.21,14.31,106.74,24.47,17.76,5.08,35.52,10.71,53.26,16.99,17.73,6.31,35.42,13.32,53.03,21.12,27.55,12.35,52.74,26.13,75.39,41.52,11.32,7.7,21.99,15.81,31.93,24.37,9.94,8.56,19.15,17.57,27.4,27.13,8.25,9.54,15.65,19.55,21.83,30.07,6.12,10.54,11.18,21.52,14.68,32.88,7.04,22.67,7.9,46.73,2.34,69.39-1.28,5.69-3.16,11.24-5.12,16.75-2.15,5.45-4.44,10.86-7.2,16.09-5.4,10.49-11.9,20.52-19.38,29.96-14.93,18.93-33.19,35.82-53.67,51.09-20.51,15.27-43.27,28.95-68,41.42-24.75,12.45-51.51,23.69-80.37,33.81-32.74,11.46-64.53,20.2-95.73,27.29-31.21,7.06-61.84,12.52-92.62,16.66-15.39,2.08-30.8,3.87-46.35,5.35-15.55,1.46-31.23,2.64-47.15,3.55-15.91.92-32.06,1.47-48.53,1.76-8.24.21-16.56.1-24.97.11-4.21,0-8.44,0-12.7-.01-4.26-.11-8.54-.21-12.84-.32-21.58-.44-59.01-1.67-96.4-5.23-2.34-.21-4.68-.38-7.01-.64-2.33-.26-4.65-.53-6.97-.79-4.64-.53-9.24-1.06-13.79-1.58-2.27-.27-4.53-.5-6.77-.81-2.23-.32-4.44-.64-6.63-.95-4.38-.64-8.67-1.27-12.83-1.87-2.08-.31-4.13-.62-6.15-.92-2.01-.35-3.98-.7-5.92-1.04-3.87-.71-7.59-1.39-11.13-2.04-3.53-.68-6.88-1.33-10.02-1.93-3.12-.73-6.02-1.4-8.69-2.02-4.39-1.18-16.32-3.44-31.27-6.98-3.74-.86-7.69-1.71-11.75-2.69-4.05-1.03-8.22-2.09-12.46-3.16-4.23-1.1-8.55-2.11-12.82-3.3-4.26-1.21-8.52-2.41-12.71-3.6-2.09-.59-4.17-1.18-6.22-1.76-1.03-.29-2.04-.58-3.06-.87-1-.32-2-.63-2.98-.94-3.94-1.25-7.75-2.46-11.36-3.6-3.6-1.17-7.03-2.18-10.13-3.28-3.1-1.11-5.94-2.12-8.45-3.01-10.02-3.6-14.74-5.42-9.96-4.05,19.09,5.48,28.9,8.17,53.12,14.67,13.74,3.79,27.19,6.78,40.25,9.75,6.57,1.32,13.05,2.62,19.46,3.91,1.6.32,3.2.63,4.79.95,1.6.28,3.2.55,4.79.82,3.18.55,6.35,1.09,9.51,1.63,3.15.54,6.29,1.08,9.42,1.61,3.12.55,6.27.93,9.38,1.4,6.23.89,12.42,1.78,18.58,2.67,6.18.73,12.34,1.45,18.49,2.17l9.21,1.07,9.23.84c6.15.56,12.3,1.12,18.48,1.68,6.18.42,12.39.83,18.63,1.25,3.12.21,6.25.41,9.38.62,3.14.14,6.3.27,9.47.41,6.33.27,12.71.55,19.16.83,6.45.13,12.97.27,19.57.41,3.3.06,6.61.18,9.96.18,3.34,0,6.71-.01,10.1-.02,6.78-.04,13.65.06,20.64-.08,6.98-.16,14.08-.33,21.31-.5,59.61-1.8,117.38-5.57,174.36-13.03,28.47-3.78,56.74-8.47,84.76-14.58,28.03-6.05,55.8-13.53,83.15-22.83,26.67-9.15,51.73-19.55,75.28-31.4,23.53-11.84,45.61-25.07,65.89-40.17,20.22-15.11,38.78-32.07,53.9-51.63,3.83-4.85,7.29-9.94,10.65-15.09l2.39-3.94,1.2-1.97,1.11-2.01,2.22-4.02,2.04-4.11,1.02-2.06.92-2.1,1.85-4.2c1.07-2.85,2.3-5.67,3.2-8.58,2.03-5.77,3.52-11.7,4.68-17.71,1.37-6.37,2.12-12.86,2.54-19.21.47-6.35.31-12.58-.06-18.43-.83-11.72-2.96-21.98-4.71-29.21-1.96-7.39-3.74-12.3-5.43-16.14-.87-1.91-1.59-3.62-2.47-5.2-.87-1.58-1.74-3.1-2.7-4.73-2.01-3.21-4.43-6.84-8.27-12.11-3.92-5.21-9.19-12.11-17.64-21.33-22.3-23.76-45.55-41.11-70.26-56.8-24.83-15.6-51.59-29.31-84.36-42.42-55.46-22.16-110.25-36.79-165.75-47.05-55.55-10.14-112.02-15.7-172.03-16.24-5.9-.04-11.81,0-17.71.02-5.9.11-11.8.12-17.69.3-5.89.17-11.78.34-17.66.51-5.88.18-11.75.53-17.62.77-23.45,1.18-46.77,2.8-69.81,5.16-23.04,2.34-45.85,4.98-68.27,8.32-22.42,3.29-44.49,6.96-66.13,10.98-34.83,6.7-63.35,13.03-90.32,20.05-13.49,3.49-26.55,7.31-39.79,11.51-3.33,1.01-6.59,2.22-9.93,3.34-3.32,1.15-6.69,2.28-10.06,3.5-3.35,1.27-6.73,2.56-10.16,3.87-1.71.66-3.44,1.32-5.17,1.99-1.71.72-3.44,1.44-5.18,2.17-19.52,8.16-40.67,19.04-61.43,32.49-10.44,6.62-20.59,14.16-30.55,22.02l-7.29,6.14c-1.21,1.04-2.46,2.02-3.63,3.1l-3.51,3.24c-2.32,2.17-4.72,4.27-6.98,6.5-2.23,2.26-4.46,4.52-6.68,6.78-1.8,1.75-3.41,3.52-5.02,5.22-1.62,1.69-3.23,3.33-4.88,4.98-1.69,1.61-3.18,3.43-4.85,5.24-1.63,1.85-3.33,3.77-5.15,5.83,7.68-12.19,15.92-22.13,24.4-31.03,8.7-8.68,17.51-16.53,27.38-23.79,9.72-7.47,20.49-14.34,32.65-21.81,12.31-7.24,26.15-14.88,42.6-23.08,9.14-4.31,17.87-6.33,24.59-8.77-3.3,1.41-5.89,2.52-7.84,3.35-1.92.89-3.21,1.49-3.95,1.83-1.47.69-.71.35,1.68-.72,2.36-1.12,6.44-2.77,11.51-4.92,2.54-1.05,5.32-2.27,8.32-3.47,3.01-1.17,6.2-2.41,9.49-3.69,6.55-2.64,13.68-5.06,20.53-7.55,6.87-2.44,13.63-4.54,19.49-6.52,11.83-3.65,20.3-6.17,20.3-6.17Z"/>
        <polygon class="cls-4" points="122.01 389.23 93.53 399.77 83 428.24 72.46 399.77 43.99 389.23 72.46 378.7 83 350.23 93.53 378.7 122.01 389.23"/>
        <polygon class="cls-5" points="119.21 386.44 90.74 396.97 80.2 425.44 69.67 396.97 41.2 386.44 69.67 375.9 80.2 347.43 90.74 375.9 119.21 386.44"/>
        <polygon class="cls-4" points="138.21 466.71 117.32 474.44 109.59 495.32 101.87 474.44 80.98 466.71 101.87 458.99 109.59 438.1 117.32 458.99 138.21 466.71"/>
        <polygon class="cls-5" points="136.15 464.66 115.27 472.39 107.54 493.27 99.82 472.39 78.93 464.66 99.82 456.93 107.54 436.05 115.27 456.93 136.15 464.66"/>
      </g>
    </g>
  </g>
</svg>