<?xml version="1.0" encoding="UTF-8"?>
<svg id="Layer_1" xmlns="http://www.w3.org/2000/svg" viewBox="0 0 573.11 560.8">
  <defs>
    <style>
      .cls-1, .cls-2, .cls-3 {
        isolation: isolate;
        opacity: .8;
      }

      .cls-1, .cls-4 {
        fill: gold;
      }

      .cls-2, .cls-5 {
        fill: #b8860b;
      }

      .cls-3 {
        fill: #8b4513;
      }
    </style>
  </defs>
  <g>
    <path class="cls-3" d="M58.16,114.93c1.82-2.45,3.56-5.01,5.42-7.32,1.84-2.36,3.67-4.7,5.49-7.03,3.75-4.47,7.41-8.99,11.25-13.13,3.75-4.31,7.68-8.2,11.53-12.22,3.98-3.79,7.87-7.71,11.98-11.25,2.04-1.78,4.03-3.68,6.14-5.36,2.09-1.71,4.18-3.44,6.27-5.15,2.09-1.72,4.28-3.28,6.43-4.93,2.15-1.64,4.32-3.28,6.56-4.78,2.23-1.53,4.47-3.08,6.72-4.63,2.3-1.45,4.61-2.91,6.94-4.37,1.17-.72,2.32-1.48,3.51-2.17,1.2-.69,2.4-1.36,3.6-2.05,2.42-1.35,4.82-2.78,7.31-4.07,2.85-1.46,5.85-2.85,8.9-4.2,3.08-1.28,6.23-2.52,9.43-3.65,9.89-3.3,16.26-3.89,24.6-6.07,17.98-5.05,36.72-8.75,56.21-10.78,19.49-2.02,39.74-2.42,60.76-.61,21.01,1.78,42.8,5.73,65.38,12.75,11.29,3.54,22.77,7.84,34.44,13.2,5.83,2.68,11.71,5.57,17.64,8.85,5.92,3.25,11.88,6.73,17.88,10.65,9.38,6.06,18.82,13.15,28.2,21.14,9.37,8.11,18.69,17.23,27.69,27.69,9,10.41,17.66,22.18,25.48,34.98,3.89,6.42,7.59,13.06,11.02,19.88,3.39,6.83,6.51,13.81,9.34,20.85,2.8,7.04,5.25,14.14,7.42,21.18,2.18,7.05,3.91,14.04,5.44,20.93,3,13.77,4.68,27,5.49,39.57,1.49,25.11-.59,47.46-4.52,67.65-3.99,20.17-9.83,38.3-16.86,54.89-7.04,16.59-15.26,31.66-24.35,45.56-9.08,13.91-19.05,26.61-29.75,38.3-10.68,11.73-22.12,22.38-34.19,32.18-13.7,11.1-27.96,20.7-42.68,29.09-7.38,4.16-14.8,8.17-22.49,11.58-7.57,3.67-15.37,6.79-23.21,9.83-15.72,5.98-32.07,10.5-48.99,13.76-16.94,3.22-34.54,5.05-52.92,5.12-5.73.09-11.5-.34-17.19-.65-2.82-.1-5.73-.51-8.59-.8-2.88-.34-5.72-.59-8.62-1.02-2.92-.49-5.83-.97-8.76-1.46-1.47-.26-2.92-.47-4.42-.79-1.5-.33-3-.67-4.5-1-3.01-.7-6.03-1.33-9.12-2.14-3.11-.89-6.24-1.79-9.42-2.7-2.63-.77-5.7-1.99-8.59-3.18-2.89-1.18-5.62-2.38-7.66-3.38-4.05-2.1-5.39-3.36.18-2.21,11.21,2.34,25.77,4.83,39.49,6.36,15.64,1.86,30.12,1.9,43.98,1.09,6.97-.28,13.65-1.21,20.36-1.94,6.57-1.1,13.18-1.99,19.57-3.5,6.48-1.24,12.76-3.04,19.13-4.69,3.16-.89,6.27-1.94,9.42-2.91,1.57-.49,3.15-.99,4.73-1.48,1.56-.56,3.11-1.14,4.67-1.7,12.59-4.32,24.98-9.89,37.69-16.19,3.26-1.67,6.5-3.33,9.72-4.98,3.18-1.74,6.37-3.39,9.48-5.16,6.27-3.44,12.39-7.02,18.39-10.69,6.02-3.64,11.9-7.45,17.67-11.38,5.79-3.91,11.43-8.01,16.98-12.27,5.56-4.24,10.98-8.71,16.29-13.4,5.31-4.68,10.52-9.58,15.56-14.81,5.05-5.22,9.98-10.7,14.75-16.53,4.75-5.86,9.36-12.05,13.76-18.67,8.58-12.98,15.97-26.72,22.2-41.37,6.22-14.64,11.33-30.16,15.05-46.93,3.7-16.76,6.04-34.8,6.23-54.49.11-9.82-.39-20.1-1.61-30.76-1.18-10.64-3.23-21.72-6.12-33-1.53-5.98-3.27-11.99-5.15-17.87-1.93-5.86-4.03-11.56-6.16-16.92-4.33-10.69-8.84-19.91-12.11-26.34-.43-.83-.84-1.62-1.23-2.39-.4-.76-.8-1.47-1.18-2.16-.75-1.4-1.44-2.67-2.08-3.85-1.32-2.35-2.42-4.32-3.4-6.07-1.01-1.75-1.9-3.27-2.75-4.75-.87-1.48-1.75-2.85-2.7-4.36-.95-1.52-2.02-3.07-3.29-4.85-.64-.89-1.32-1.87-2.09-2.88-.77-1-1.61-2.07-2.53-3.25-3.69-4.61-8.77-10.62-16.36-18.12-2.46-2.45-4.94-4.7-7.39-6.95-2.46-2.15-4.91-4.33-7.35-6.31-2.44-2.06-4.87-3.9-7.29-5.81-2.42-1.78-4.84-3.63-7.24-5.27-4.81-3.43-9.58-6.43-14.32-9.34-2.37-1.37-4.74-2.83-7.1-4.1l-3.55-1.96-3.54-1.85c-9.44-4.89-18.85-9.01-28.42-12.64-9.57-3.61-19.32-6.81-29.39-9.51-17.07-4.71-33.28-7.6-48.87-9.15-15.6-1.56-30.6-1.84-45.2-.96-29.2,1.78-56.93,7.88-84.2,19.14-10.72,4.45-21.09,9.66-31.23,15.21-10.08,5.67-19.9,11.76-29.4,18.23-9.45,6.58-18.6,13.5-27.44,20.69-8.81,7.26-17.26,14.86-25.42,22.58-13.07,12.64-23.45,23.7-32.87,35.05-9.39,11.39-17.87,23.05-25.99,38.48-5.66,10.87-11.03,24.37-15.3,39.99-.52,1.97-1.1,3.88-1.58,5.92-.47,2.05-.94,4.1-1.41,6.17l-.71,3.1-.6,3.23c-.41,2.15-.81,4.31-1.21,6.47-1.38,8.87-2.63,17.94-3.15,27.57-.11,1.93-.33,3.66-.41,5.46-.1,1.78-.22,3.52-.35,5.27-.32,3.44-.43,7.14-.51,11.46-2.22-24.4-.29-51.56,5.26-76.36.74-3.05,1.42-6.2,2.22-9.22.84-2.98,1.68-5.98,2.53-8.99.92-2.92,1.88-5.8,2.83-8.7.46-1.47.98-2.87,1.51-4.25l1.57-4.17c.53-1.38,1.03-2.8,1.59-4.14.56-1.33,1.13-2.66,1.69-3.99,1.14-2.64,2.24-5.34,3.47-7.82,1.21-2.52,2.43-5.01,3.63-7.5,1.28-2.38,2.54-4.74,3.8-7.09,1.38-2.59,2.57-4.14,3.61-5.57,1.06-1.41,2.03-2.62,3.17-4.24,7.14-11.14,13.35-21.61,20.44-31.5h-.02l-.04.05Z"/>
    <path class="cls-2" d="M53.67,123.79c6.97-10.27,14.08-19.76,21.51-28.41,7.43-8.66,14.98-16.85,22.98-24.28,7.96-7.49,16.18-14.55,24.93-20.99,4.31-3.35,8.86-6.3,13.4-9.43,2.33-1.45,4.66-2.91,7.02-4.38,1.18-.72,2.36-1.47,3.56-2.17,1.21-.68,2.43-1.37,3.65-2.06,5.56-3.22,11.8-5.8,18.06-8.36,9.73-3.55,16.08-4.27,24.31-6.67C228.59,6.04,267.13.23,308.66,2.4c20.78,1.18,42.29,4.29,64.58,10.41,22.28,6.14,45.35,15.07,69.05,28.93,9.28,5.46,18.61,11.75,27.9,18.91,4.65,3.67,9.28,7.41,13.89,11.58,1.15,1.01,2.31,2.04,3.45,3.13l3.44,3.22c2.28,2.26,4.57,4.43,6.82,6.82,4.53,4.63,8.99,9.64,13.37,14.9,4.38,5.22,8.64,10.84,12.75,16.67,4.12,5.82,8.06,11.98,11.78,18.33,1.89,3.15,3.65,6.43,5.42,9.68,1.71,3.31,3.43,6.6,5.01,9.97,3.2,6.72,6.18,13.56,8.76,20.45,2.59,6.89,4.96,13.81,6.89,20.66,3.95,13.72,6.61,27.18,8.2,39.99.22,1.62.4,3.2.55,4.78.16,1.58.34,3.17.47,4.73.23,3.1.51,6.23.63,9.27.35,6.13.39,12.03.33,17.85-.22,11.56-1.12,22.54-2.59,32.96-2.99,20.8-8.03,39.49-14.35,56.63-6.33,17.13-13.95,32.7-22.49,47.1-17.12,28.76-37.85,52.88-61.37,73.49-13.37,11.66-27.28,21.91-41.73,30.83-7.22,4.46-14.57,8.61-22.04,12.47-1.88.94-3.73,1.94-5.63,2.82l-5.7,2.66-5.7,2.66c-1.9.88-3.87,1.61-5.8,2.44-30.92,12.99-64.06,21.05-100.24,22.75-22.71.82-44.44-1.11-69.54-7.34-2.59-.62-6.41-1.84-10.44-3.06-2.02-.62-4.09-1.23-6.12-1.9-2.05-.75-4.04-1.47-5.86-2.14-7.29-2.68-11.79-4.77-6.24-3.63,11.21,2.35,25.78,4.81,39.47,6.32,15.63,1.84,30.12,1.9,43.96,1.06,6.97-.28,13.65-1.21,20.34-1.96,6.58-1.09,13.17-2.01,19.56-3.51,6.49-1.23,12.75-3.06,19.13-4.7,3.15-.91,6.27-1.94,9.42-2.91,1.57-.5,3.15-.99,4.73-1.49,1.56-.56,3.11-1.14,4.67-1.7,12.58-4.34,24.98-9.89,37.69-16.22,3.26-1.67,6.5-3.33,9.71-4.98,3.17-1.74,6.36-3.39,9.47-5.16,6.26-3.45,12.38-7.02,18.38-10.7,6.02-3.65,11.89-7.46,17.66-11.39,5.78-3.91,11.43-8.01,16.97-12.28,5.55-4.25,10.98-8.71,16.28-13.41,5.31-4.69,10.51-9.59,15.55-14.82,5.05-5.21,9.97-10.71,14.74-16.54,4.75-5.87,9.35-12.07,13.75-18.69,8.57-12.98,15.95-26.72,22.16-41.38,6.21-14.65,11.3-30.18,15-46.94,3.69-16.76,6-34.81,6.17-54.49.1-9.82-.43-20.1-1.65-30.74-1.19-10.63-3.26-21.7-6.16-32.96-1.52-5.97-3.28-11.98-5.17-17.84-1.91-5.86-4.06-11.55-6.17-16.9-4.35-10.67-8.86-19.88-12.14-26.3-.43-.83-.84-1.62-1.23-2.38-.41-.75-.8-1.47-1.18-2.15-.75-1.37-1.43-2.67-2.07-3.83-1.31-2.34-2.4-4.27-3.36-5.99-1-1.72-1.86-3.22-2.69-4.66-.85-1.44-1.7-2.79-2.63-4.26-.92-1.49-1.97-3.01-3.22-4.76-.63-.87-1.3-1.84-2.05-2.84-.77-.98-1.59-2.05-2.5-3.21-3.65-4.58-8.69-10.56-16.28-18.06-2.46-2.46-4.94-4.7-7.39-6.96-2.47-2.15-4.9-4.34-7.35-6.31-2.44-2.06-4.87-3.91-7.29-5.81-1.21-.89-2.42-1.8-3.63-2.68-1.21-.91-2.41-1.76-3.61-2.59-4.8-3.43-9.57-6.43-14.31-9.34-4.74-2.8-9.47-5.51-14.18-7.9-9.43-4.9-18.84-9.03-28.41-12.66s-19.31-6.81-29.39-9.53c-17.07-4.73-33.28-7.61-48.87-9.18-7.8-.78-15.45-1.24-22.98-1.42-7.52-.15-14.92.01-22.23.43-29.19,1.77-56.92,7.85-84.19,19.11-10.72,4.45-21.1,9.65-31.24,15.2-10.08,5.66-19.9,11.74-29.4,18.21-9.45,6.57-18.6,13.48-27.45,20.66-8.81,7.25-17.27,14.84-25.43,22.57-13.08,12.64-23.46,23.69-32.88,35.03-9.39,11.39-17.88,23.02-25.99,38.44-5.67,10.86-11.04,24.36-15.31,39.96-.53,1.96-1.1,3.89-1.58,5.91-.47,2.05-.94,4.1-1.42,6.16l-.71,3.1-.61,3.22c-.4,2.15-.8,4.31-1.21,6.47-1.39,8.86-2.64,17.93-3.17,27.55-.11,1.91-.32,3.64-.42,5.43-.1,1.78-.22,3.51-.35,5.26-.07.87-.13,1.74-.2,2.63-.08.88-.14,1.79-.16,2.75-.06,1.91-.11,3.91-.16,6.04-.21-2.99-.49-6.07-.61-9.07-.08-2.97-.16-5.97-.24-9.01.04-5.9.1-11.94.56-17.73.79-11.71,2.35-23.21,4.77-34.19.54-2.82,1.23-5.49,1.91-8.21.69-2.71,1.34-5.48,2.16-8.09.79-2.64,1.57-5.33,2.4-7.97.89-2.58,1.78-5.16,2.68-7.78,3.76-10.24,8.02-20.25,12.91-29.8,2.72-5.18,4.32-6.82,6.51-10.19,6.83-11.56,12.81-22.32,19.67-32.5v-.03l.05-.04Z"/>
    <path class="cls-1" d="M46.92,139.27c6.51-10.87,13.38-20.66,20.42-29.87,1.79-2.26,3.5-4.63,5.33-6.78,1.82-2.19,3.63-4.36,5.44-6.53,1.84-2.13,3.72-4.17,5.58-6.25.94-1.03,1.85-2.1,2.81-3.09l2.88-2.97c7.62-8.02,15.66-15.34,24.09-22.28,8.4-7.02,17.38-13.31,26.86-19.34,2.74-1.66,5.59-3.3,8.54-4.82,3-1.42,6.04-2.86,9.09-4.29,4.78-1.95,8.73-3.15,12.46-4.29,3.77-1.05,7.31-2.04,11.36-3.38,17.37-6.25,35.05-10.92,53.16-14.08,18.11-3.15,36.65-4.82,55.83-4.82,19.18.02,39,1.69,59.73,5.6,20.75,4.01,42.43,10.16,65.37,20.31,8.99,4.02,17.99,8.62,26.98,13.91,8.99,5.32,17.96,11.37,26.86,18.21,4.45,3.48,8.87,7.06,13.26,10.99,4.39,3.85,8.74,8.02,13.03,12.37,4.3,4.34,8.51,9.04,12.65,13.86,4.12,4.92,8.15,10.04,12.04,15.41,3.86,5.41,7.62,11.02,11.16,16.85,3.52,5.85,6.87,11.87,9.97,18.04,3.07,6.19,5.94,12.47,8.52,18.84,2.54,6.37,4.87,12.78,6.89,19.17,4.01,12.79,6.91,25.47,8.75,37.66l.36,2.3.3,2.26.59,4.52c.28,2.95.68,5.97.87,8.88l.34,4.39.22,4.31.11,2.16.06,2.12.11,4.23c.27,22.39-2.18,42.73-6.32,61.32-4.14,18.61-9.91,35.62-16.81,51.41-13.85,31.56-32.12,58.4-53.78,81.98-12.32,13.33-25.34,25.07-38.92,35.52-13.58,10.44-27.73,19.62-42.46,27.53-1.83,1.01-3.68,1.98-5.55,2.92s-3.71,1.93-5.61,2.79l-11.35,5.31c-3.87,1.59-7.74,3.19-11.61,4.78-1.92.84-3.92,1.49-5.89,2.21l-5.94,2.11c-15.93,5.45-32.5,9.66-49.83,12.37-2.72.39-5.59.79-8.57,1.22-3.03.3-6.16.61-9.38.93-1.61.15-3.23.35-4.89.46-1.67.09-3.35.18-5.05.26-1.7.08-3.4.17-5.11.26s-3.42.19-5.18.15c-13.86.33-28.27-.91-40.49-2.97-2.58-.57-7.03-1.37-12.1-2.28-2.57-.57-5.29-1.18-8.01-1.79s-5.42-1.17-8.01-1.95c-2.58-.73-4.99-1.4-7.06-1.98-1.04-.31-2-.59-2.85-.84-.86-.28-1.62-.57-2.26-.8-2.54-.96-3.08-1.36-.31-.85,11.02,1.78,25.48,3.87,38.94,4.77,15.4,1.14,29.72.81,43.43-.38,3.4-.37,6.78-.75,10.15-1.13,3.34-.44,6.61-1.04,9.91-1.55,1.64-.28,3.29-.5,4.91-.82l4.83-1.03,4.82-1.02c1.6-.35,3.22-.65,4.79-1.11,3.15-.83,6.31-1.66,9.47-2.49l2.37-.63,2.33-.73c1.55-.49,3.11-.98,4.67-1.47,6.29-1.83,12.37-4.27,18.62-6.5,3.06-1.26,6.13-2.55,9.24-3.83,1.55-.65,3.1-1.3,4.66-1.96,1.53-.71,3.06-1.45,4.61-2.17,3.07-1.47,6.22-2.85,9.31-4.43,3.07-1.61,6.19-3.24,9.33-4.88,6.46-3.45,12.75-7,18.9-10.67,6.16-3.65,12.2-7.34,18.09-11.21,5.9-3.84,11.7-7.77,17.35-11.9,5.67-4.11,11.23-8.33,16.65-12.79,21.7-17.78,41.73-38.44,58.72-65.75,8.21-13.44,15.22-27.62,21.02-42.71,5.79-15.09,10.34-31.15,13.42-48.42,3.06-17.27,4.57-35.88,3.73-55.99-.4-10.04-1.54-20.51-3.38-31.24-.97-5.38-2.05-10.81-3.45-16.31-.63-2.74-1.46-5.5-2.2-8.27-.85-2.76-1.63-5.54-2.58-8.31-.92-2.96-1.98-5.91-2.99-8.84-1.1-2.92-2.14-5.84-3.33-8.7-1.11-2.87-2.36-5.65-3.51-8.42-1.26-2.71-2.41-5.41-3.69-7.96-2.43-5.17-4.98-9.87-7.25-14.13-1.18-2.11-2.3-4.08-3.33-5.93-1.07-1.82-2.06-3.51-2.94-5.06-1.91-3.07-3.43-5.64-4.76-7.69-1.31-2.07-2.34-3.78-3.25-5.16-.9-1.43-1.64-2.61-2.34-3.72-.71-1.11-1.39-2.12-2.15-3.23-1.52-2.24-3.44-4.76-6.81-8.72-.85-.97-1.79-2.04-2.83-3.22-1.04-1.17-2.22-2.38-3.51-3.76-1.29-1.39-2.72-2.79-4.3-4.36-1.57-1.59-3.31-3.19-5.2-4.96-9.88-9.02-19.6-16.42-29.14-22.68-9.55-6.32-18.92-11.48-28.27-16.01-9.35-4.54-18.68-8.34-28.17-11.68-9.49-3.33-19.14-6.22-29.13-8.7-16.93-4.3-32.99-6.79-48.46-8.05-15.48-1.28-30.34-1.22-44.84-.13-28.96,2.3-56.45,8.84-83.47,20.55l-3.97,1.76-3.93,1.85c-2.63,1.2-5.2,2.54-7.79,3.82-2.58,1.3-5.11,2.72-7.66,4.07l-3.82,2.05-3.74,2.18c-10.04,5.71-19.71,12.04-29.07,18.72-4.72,3.27-9.26,6.83-13.83,10.27-4.46,3.63-8.97,7.13-13.27,10.9-8.69,7.41-17.09,15.06-25.06,23.06-12.94,12.83-23.06,24.26-32.28,35.85-9.16,11.67-17.4,23.61-25.29,39.25-5.41,11.14-10.58,24.83-14.45,40.8-.91,4.06-1.95,8.02-2.68,12.35-.4,2.13-.8,4.26-1.2,6.41-.32,2.22-.65,4.44-.97,6.67l-.48,3.34c-.14,1.14-.25,2.3-.37,3.45l-.73,6.92c-.16,2.38-.32,4.76-.48,7.13l-.24,3.56-.1,3.67c-.05,1.95-.13,3.78-.23,5.55-.06.88-.09,1.77-.1,2.67l-.08,2.68c-.06,1.79-.12,3.6-.18,5.5-.03,1.91.04,3.99.07,6.18-.8-6.19-1.09-11.97-1.4-17.73-.05-2.81-.1-5.59-.14-8.38-.04-1.41,0-2.75.04-4.09l.13-4.02.14-4.01c.06-1.32.19-2.59.29-3.89.21-2.57.41-5.18.67-7.75.66-4.98,1.23-10.12,2.19-14.95.22-1.23.45-2.46.67-3.7.22-1.25.46-2.48.74-3.67.54-2.41,1.1-4.83,1.66-7.3.56-2.47,1.27-4.79,1.92-7.25.33-1.22.67-2.43,1.01-3.67.34-1.23.75-2.39,1.12-3.61.77-2.4,1.55-4.85,2.35-7.33.87-2.4,1.75-4.84,2.65-7.33.86-2.54,1.91-4.91,2.9-7.42,1-2.5,2.01-5.06,3.16-7.54,1.24-2.74,2.22-4.58,3.13-6.19.95-1.56,1.85-2.87,2.88-4.63,6.3-12.23,11.81-23.57,18.22-34.31l-.06-.02v-.05Z"/>
    <path class="cls-1" d="M49.87,145.09c5.12-8.36,9.4-15.26,13.61-21.52,2.1-3.12,4.09-6.25,6.24-9.16,2.12-2.96,4.2-6.04,6.56-8.99,2.32-3,4.72-6.2,7.49-9.35,1.37-1.59,2.8-3.25,4.28-4.98,1.54-1.64,3.14-3.35,4.81-5.14,3.33-3.63,7.2-7.17,11.44-11.18,2.19-1.89,4.48-3.88,6.89-5.96,2.41-2.1,5.07-4.05,7.81-6.23,2.53-2.03,5.3-3.8,8.1-5.6,1.41-.88,2.83-1.77,4.26-2.66,1.46-.82,2.93-1.65,4.39-2.48,2.27-1.19,4.32-2.25,6.29-3.09,1.99-.81,3.83-1.55,5.62-2.28,3.57-1.47,7.03-2.64,10.88-4.36,16.59-7.76,33.53-13.93,50.92-18.67,17.39-4.75,35.21-8.08,53.66-9.9,18.45-1.82,37.53-2.15,57.49-.56,9.98.8,20.18,2.07,30.65,3.93,10.47,1.88,21.21,4.39,32.24,7.61,17.31,5.17,34.17,12.09,50.55,20.95,8.19,4.44,16.26,9.37,24.19,14.85,7.93,5.48,15.72,11.51,23.31,18.21,7.58,6.69,14.98,13.97,22.04,21.96,7.04,8.01,13.8,16.63,20.01,25.91,12.43,18.5,22.68,39.51,29.51,60.62,1.77,5.28,3.21,10.55,4.6,15.81,1.28,5.24,2.48,10.48,3.4,15.66,1.9,10.36,3.13,20.53,3.67,30.4,1.13,19.76-.06,38.42-2.9,56.1-2.85,17.69-7.36,34.45-13.24,50.56-5.9,16.09-13.18,31.53-21.86,46.42-9.85,16.87-20.4,31.15-31.36,43.86-10.98,12.68-22.36,23.83-34.34,33.85-5.99,5.02-12.11,9.79-18.41,14.31-6.31,4.51-12.8,8.79-19.51,12.89-6.7,4.11-13.65,7.93-20.85,11.6-3.58,1.89-7.32,3.52-11.06,5.27-1.87.87-3.75,1.75-5.65,2.62-1.94.79-3.88,1.58-5.84,2.38-9.77,4.08-26.92,10.75-45,15.36-1.13.3-2.24.63-3.38.89-1.14.25-2.28.5-3.42.75-2.28.49-4.54.98-6.78,1.46-1.12.23-2.22.5-3.34.69-1.12.18-2.24.36-3.34.54-2.21.34-4.38.68-6.47,1.01-1.05.16-2.09.31-3.11.46-1.04.11-2.06.21-3.06.31-2.01.18-3.94.35-5.78.51-1.85.13-3.6.25-5.25.38-1.69,0-3.25.01-4.69.02-2.44-.13-8.67.35-16.76.33-2.02.02-4.12.09-6.33.06-2.22-.07-4.51-.14-6.84-.2-2.33-.09-4.67-.09-7.05-.25-2.39-.18-4.78-.36-7.13-.54-1.17-.09-2.34-.18-3.49-.26-.58-.04-1.14-.09-1.72-.13-.58-.07-1.15-.14-1.71-.21-2.26-.28-4.45-.56-6.53-.82-2.08-.28-4.02-.46-5.85-.79-1.83-.34-3.51-.64-4.99-.9-5.93-1.09-8.78-1.72-6.09-1.5,10.73.87,16.2,1.21,29.63,1.92,7.66.49,14.87.34,21.89.25,3.46-.2,6.88-.4,10.26-.59.84-.05,1.68-.11,2.52-.16.83-.08,1.65-.18,2.47-.27,1.64-.17,3.27-.36,4.9-.53,1.62-.18,3.24-.35,4.85-.53,1.61-.16,3.17-.48,4.74-.71,3.13-.51,6.25-1,9.36-1.5,3.05-.64,6.08-1.28,9.11-1.92l4.53-.97,4.45-1.17c2.96-.78,5.93-1.56,8.9-2.35,2.92-.91,5.85-1.84,8.8-2.76,1.47-.46,2.95-.93,4.42-1.4,1.45-.53,2.91-1.07,4.38-1.6,2.92-1.07,5.88-2.15,8.86-3.24,2.92-1.22,5.88-2.45,8.87-3.69,1.49-.63,3.01-1.21,4.5-1.9s2.98-1.4,4.48-2.11c3-1.44,6.09-2.77,9.14-4.35,3.04-1.59,6.12-3.21,9.27-4.85,25.76-13.93,49.9-29.22,72.17-47.59,11.11-9.22,21.75-19.21,31.7-30.39,9.98-11.13,19.26-23.47,27.6-37.32,8.1-13.58,14.98-27.93,20.59-43.24,5.6-15.3,9.99-31.52,12.81-49.02,2.79-17.49,4.08-36.27,2.78-56.63-.29-5.06-.84-10.26-1.46-15.49l-.55-3.96-.27-1.98-.33-2-.66-4-.78-4.04-.39-2.03-.45-2.04-.9-4.08c-.69-2.73-1.3-5.47-2.1-8.22-1.46-5.5-3.23-11.03-5.18-16.56-2-5.89-4.33-11.76-6.75-17.44-2.4-5.69-5.02-11.14-7.59-16.22-5.18-10.15-10.33-18.74-14.08-24.75-3.9-6.1-6.71-10.06-9.04-13.09-1.17-1.5-2.19-2.86-3.23-4.07-1.03-1.21-2.05-2.37-3.14-3.61-2.21-2.41-4.78-5.11-8.64-8.95-3.88-3.78-9.05-8.76-16.59-15.13-19.66-16.3-37.11-26.77-54.54-35.46-17.44-8.59-34.96-15.12-54.91-19.88-33.75-8.03-64.11-9.56-92.99-7.1-28.86,2.58-56.24,9.38-83.14,21.33-2.64,1.19-5.25,2.45-7.87,3.69-2.58,1.32-5.2,2.55-7.74,3.93-2.55,1.37-5.1,2.74-7.64,4.11-2.54,1.38-5.01,2.9-7.52,4.33-9.94,5.9-19.64,12.15-28.92,19-9.28,6.83-18.34,13.88-26.94,21.47-8.62,7.54-16.92,15.34-24.89,23.36-12.74,13.11-22.82,24.59-31.93,36.36-4.57,5.87-8.8,11.94-12.97,18.38-1.07,1.58-2.02,3.32-3.04,5-1,1.7-2.04,3.39-3.04,5.17-.97,1.81-1.94,3.65-2.93,5.51-.49.94-.99,1.87-1.48,2.82-.46.99-.94,1.98-1.41,2.98-5.33,11.23-10.27,25.19-13.98,41.33-1.93,7.99-3.34,16.73-4.55,25.72l-.72,6.92c-.11,1.17-.26,2.29-.34,3.48l-.23,3.58c-.14,2.39-.35,4.74-.44,7.17-.06,2.45-.13,4.9-.19,7.35-.08,1.91-.07,3.81-.09,5.64-.03,1.82-.07,3.6-.13,5.4-.09,1.77,0,3.68,0,5.62.03,1.97.07,4.01.1,6.2-1.59-12.32-2-22.78-1.88-32.38.31-9.45,1-18.18,2.41-26.62,1.26-8.59,3.23-16.87,5.57-25.97,2.5-8.92,5.52-18.52,9.47-29.15,2.3-5.69,5.35-9.28,7.33-12.82-.89,1.93-1.58,3.44-2.11,4.57-.49,1.18-.82,1.98-1.01,2.43-.37.91-.17.46.45-.98.59-1.48,1.73-3.77,3.1-6.72.7-1.45,1.43-3.1,2.28-4.78.86-1.65,1.77-3.41,2.71-5.21,1.83-3.68,4.01-7.29,6.03-10.9,2.05-3.57,4.2-6.82,5.99-9.78,3.76-5.66,6.49-9.64,6.49-9.64h.01Z"/>
  </g>
  <g>
    <polygon class="cls-5" points="86.97 445.48 58.49 456.02 47.96 484.49 37.42 456.02 8.95 445.48 37.42 434.95 47.96 406.48 58.49 434.95 86.97 445.48"/>
    <polygon class="cls-4" points="84.17 442.69 55.7 453.22 45.16 481.69 34.63 453.22 6.16 442.69 34.63 432.15 45.16 403.68 55.7 432.15 84.17 442.69"/>
    <polygon class="cls-5" points="103.17 522.96 82.28 530.69 74.55 551.57 66.83 530.69 45.94 522.96 66.83 515.24 74.55 494.35 82.28 515.24 103.17 522.96"/>
    <polygon class="cls-4" points="101.11 520.91 80.23 528.64 72.5 549.52 64.78 528.64 43.89 520.91 64.78 513.18 72.5 492.3 80.23 513.18 101.11 520.91"/>
  </g>
</svg>